<svg xmlns="http://www.w3.org/2000/svg" xmlns:xlink="http://www.w3.org/1999/xlink" width="20" height="20" viewBox="0 0 20 20">
  <defs>
    <clipPath id="clip-path">
      <rect id="Rectangle_1051" data-name="Rectangle 1051" width="20" height="20" transform="translate(724 42)" fill="none" stroke="#707070" stroke-width="1"/>
    </clipPath>
  </defs>
  <g id="Mask_Group_12" data-name="Mask Group 12" transform="translate(-724 -42)" clip-path="url(#clip-path)">
    <path id="Path_4" data-name="Path 4" d="M39.194,48H24.608a.608.608,0,0,0-.608.608V58.939a1.215,1.215,0,0,0,1.215,1.215h13.37A1.215,1.215,0,0,0,39.8,58.939V48.608A.608.608,0,0,0,39.194,48ZM31.9,54.469l-5.73-5.253H37.631Zm-2.225-.391-4.46,4.088V49.99Zm.9.824.912.839a.608.608,0,0,0,.822,0l.912-.839,4.406,4.038H26.17Zm3.551-.824,4.46-4.089v8.177Z" transform="translate(702 -2)" fill="#fff"/>
  </g>
</svg>
