<svg xmlns="http://www.w3.org/2000/svg" xmlns:xlink="http://www.w3.org/1999/xlink" width="20" height="20" viewBox="0 0 20 20">
  <defs>
    <clipPath id="clip-path">
      <rect id="Rectangle_1050" data-name="Rectangle 1050" width="20" height="20" transform="translate(724 18)" fill="none" stroke="#707070" stroke-width="1"/>
    </clipPath>
  </defs>
  <g id="Mask_Group_11" data-name="Mask Group 11" transform="translate(-724 -18)" clip-path="url(#clip-path)">
    <path id="Path_3" data-name="Path 3" d="M45.326,33.413l-3.3-1.478-.009,0a1.12,1.12,0,0,0-1.062.1.567.567,0,0,0-.053.039l-1.7,1.452a6.448,6.448,0,0,1-2.718-2.7l1.455-1.73c.014-.017.027-.035.04-.054a1.12,1.12,0,0,0,.092-1.054v-.008l-1.482-3.3a1.12,1.12,0,0,0-1.163-.666A3.938,3.938,0,0,0,32,27.921,10.092,10.092,0,0,0,42.08,38a3.938,3.938,0,0,0,3.912-3.424A1.12,1.12,0,0,0,45.326,33.413ZM42.08,36.881a8.97,8.97,0,0,1-8.96-8.96,2.814,2.814,0,0,1,2.441-2.8.044.044,0,0,0,0,.008l1.47,3.29-1.447,1.732a.429.429,0,0,0-.04.054,1.12,1.12,0,0,0-.07,1.1,7.561,7.561,0,0,0,3.252,3.228,1.12,1.12,0,0,0,1.1-.08.592.592,0,0,0,.052-.039l1.7-1.452,3.29,1.473h.008A2.815,2.815,0,0,1,42.08,36.881Z" transform="translate(695 -3.001)" fill="#fff"/>
  </g>
</svg>
